<mxfile host="app.diagrams.net" modified="2023-11-14T17:28:46.154Z" agent="Mozilla/5.0 (Windows NT 10.0; Win64; x64) AppleWebKit/537.36 (KHTML, like Gecko) Chrome/116.0.5845.837 YaBrowser/23.9.4.837 Yowser/2.5 Safari/537.36" etag="2C9UHMHxW2MlETYKaGcr" version="22.1.1" type="google">
  <diagram name="Page-1" id="e7e014a7-5840-1c2e-5031-d8a46d1fe8dd">
    <mxGraphModel grid="1" page="1" gridSize="10" guides="1" tooltips="1" connect="1" arrows="1" fold="1" pageScale="1" pageWidth="2336" pageHeight="1654" background="none" math="0" shadow="0">
      <root>
        <mxCell id="0" />
        <mxCell id="1" parent="0" />
        <mxCell id="oryLOTmuy3Qz9RxGa48n-1" value="Пользователь" style="swimlane;fontStyle=2;align=center;verticalAlign=top;childLayout=stackLayout;horizontal=1;startSize=26;horizontalStack=0;resizeParent=1;resizeLast=0;collapsible=1;marginBottom=0;rounded=0;shadow=0;strokeWidth=1;" vertex="1" parent="1">
          <mxGeometry x="150" y="262" width="220" height="250" as="geometry">
            <mxRectangle x="220" y="120" width="160" height="26" as="alternateBounds" />
          </mxGeometry>
        </mxCell>
        <mxCell id="oryLOTmuy3Qz9RxGa48n-2" value="–Имя" style="text;align=left;verticalAlign=top;spacingLeft=4;spacingRight=4;overflow=hidden;rotatable=0;points=[[0,0.5],[1,0.5]];portConstraint=eastwest;" vertex="1" parent="oryLOTmuy3Qz9RxGa48n-1">
          <mxGeometry y="26" width="220" height="26" as="geometry" />
        </mxCell>
        <mxCell id="oryLOTmuy3Qz9RxGa48n-3" value="–пароль" style="text;align=left;verticalAlign=top;spacingLeft=4;spacingRight=4;overflow=hidden;rotatable=0;points=[[0,0.5],[1,0.5]];portConstraint=eastwest;rounded=0;shadow=0;html=0;" vertex="1" parent="oryLOTmuy3Qz9RxGa48n-1">
          <mxGeometry y="52" width="220" height="26" as="geometry" />
        </mxCell>
        <mxCell id="oryLOTmuy3Qz9RxGa48n-4" value="–почта" style="text;align=left;verticalAlign=top;spacingLeft=4;spacingRight=4;overflow=hidden;rotatable=0;points=[[0,0.5],[1,0.5]];portConstraint=eastwest;rounded=0;shadow=0;html=0;" vertex="1" parent="oryLOTmuy3Qz9RxGa48n-1">
          <mxGeometry y="78" width="220" height="26" as="geometry" />
        </mxCell>
        <mxCell id="oryLOTmuy3Qz9RxGa48n-5" value="" style="line;html=1;strokeWidth=1;align=left;verticalAlign=middle;spacingTop=-1;spacingLeft=3;spacingRight=3;rotatable=0;labelPosition=right;points=[];portConstraint=eastwest;" vertex="1" parent="oryLOTmuy3Qz9RxGa48n-1">
          <mxGeometry y="104" width="220" height="8" as="geometry" />
        </mxCell>
        <mxCell id="oryLOTmuy3Qz9RxGa48n-6" value="+зарегистрироваться&#xa;+запросить пароль&#xa;+запрос изменения пароля&#xa;+запрос на удаление пароля&#xa;+запрос на добавление пароля&#xa;+Авторизация" style="text;align=left;verticalAlign=top;spacingLeft=4;spacingRight=4;overflow=hidden;rotatable=0;points=[[0,0.5],[1,0.5]];portConstraint=eastwest;" vertex="1" parent="oryLOTmuy3Qz9RxGa48n-1">
          <mxGeometry y="112" width="220" height="98" as="geometry" />
        </mxCell>
        <mxCell id="oryLOTmuy3Qz9RxGa48n-7" value="" style="endArrow=block;startArrow=block;endFill=1;startFill=1;html=1;rounded=0;entryX=0.361;entryY=-0.008;entryDx=0;entryDy=0;entryPerimeter=0;" edge="1" parent="oryLOTmuy3Qz9RxGa48n-1" target="oryLOTmuy3Qz9RxGa48n-8">
          <mxGeometry width="160" relative="1" as="geometry">
            <mxPoint x="80" y="250" as="sourcePoint" />
            <mxPoint x="240" y="230" as="targetPoint" />
          </mxGeometry>
        </mxCell>
        <mxCell id="oryLOTmuy3Qz9RxGa48n-8" value="Пароль менеджер" style="swimlane;fontStyle=0;align=center;verticalAlign=top;childLayout=stackLayout;horizontal=1;startSize=26;horizontalStack=0;resizeParent=1;resizeLast=0;collapsible=1;marginBottom=0;rounded=0;shadow=0;strokeWidth=1;" vertex="1" parent="1">
          <mxGeometry x="140" y="632" width="240" height="180" as="geometry">
            <mxRectangle x="130" y="380" width="160" height="26" as="alternateBounds" />
          </mxGeometry>
        </mxCell>
        <mxCell id="oryLOTmuy3Qz9RxGa48n-9" value="–Пользователь" style="text;align=left;verticalAlign=top;spacingLeft=4;spacingRight=4;overflow=hidden;rotatable=0;points=[[0,0.5],[1,0.5]];portConstraint=eastwest;" vertex="1" parent="oryLOTmuy3Qz9RxGa48n-8">
          <mxGeometry y="26" width="240" height="26" as="geometry" />
        </mxCell>
        <mxCell id="oryLOTmuy3Qz9RxGa48n-10" value="" style="line;html=1;strokeWidth=1;align=left;verticalAlign=middle;spacingTop=-1;spacingLeft=3;spacingRight=3;rotatable=0;labelPosition=right;points=[];portConstraint=eastwest;" vertex="1" parent="oryLOTmuy3Qz9RxGa48n-8">
          <mxGeometry y="52" width="240" height="8" as="geometry" />
        </mxCell>
        <mxCell id="oryLOTmuy3Qz9RxGa48n-11" value="+зашифровать пароль&#xa;+расшифровать пароль&#xa;+запросить пароль&#xa;+запрос изменения пароля&#xa;+запрос на удаление пароля&#xa;+запрос на добавление пароля&#xa;+запрос на проверку авторизации&#xa;" style="text;align=left;verticalAlign=top;spacingLeft=4;spacingRight=4;overflow=hidden;rotatable=0;points=[[0,0.5],[1,0.5]];portConstraint=eastwest;fontStyle=4" vertex="1" parent="oryLOTmuy3Qz9RxGa48n-8">
          <mxGeometry y="60" width="240" height="120" as="geometry" />
        </mxCell>
        <mxCell id="oryLOTmuy3Qz9RxGa48n-12" value="БД" style="swimlane;fontStyle=0;align=center;verticalAlign=top;childLayout=stackLayout;horizontal=1;startSize=26;horizontalStack=0;resizeParent=1;resizeLast=0;collapsible=1;marginBottom=0;rounded=0;shadow=0;strokeWidth=1;" vertex="1" parent="1">
          <mxGeometry x="540" y="302" width="210" height="170" as="geometry">
            <mxRectangle x="550" y="140" width="160" height="26" as="alternateBounds" />
          </mxGeometry>
        </mxCell>
        <mxCell id="oryLOTmuy3Qz9RxGa48n-13" value="–пароль" style="text;align=left;verticalAlign=top;spacingLeft=4;spacingRight=4;overflow=hidden;rotatable=0;points=[[0,0.5],[1,0.5]];portConstraint=eastwest;" vertex="1" parent="oryLOTmuy3Qz9RxGa48n-12">
          <mxGeometry y="26" width="210" height="26" as="geometry" />
        </mxCell>
        <mxCell id="oryLOTmuy3Qz9RxGa48n-14" value="" style="line;html=1;strokeWidth=1;align=left;verticalAlign=middle;spacingTop=-1;spacingLeft=3;spacingRight=3;rotatable=0;labelPosition=right;points=[];portConstraint=eastwest;" vertex="1" parent="oryLOTmuy3Qz9RxGa48n-12">
          <mxGeometry y="52" width="210" height="8" as="geometry" />
        </mxCell>
        <mxCell id="oryLOTmuy3Qz9RxGa48n-15" value="+выдать пароль&#xa;+записать пароль&#xa;+удалить пароль&#xa;+изменить пароль&#xa;+проверить наличие пароля&#xa;+добавить пользователя&#xa;+удалить пользователя" style="text;align=left;verticalAlign=top;spacingLeft=4;spacingRight=4;overflow=hidden;rotatable=0;points=[[0,0.5],[1,0.5]];portConstraint=eastwest;" vertex="1" parent="oryLOTmuy3Qz9RxGa48n-12">
          <mxGeometry y="60" width="210" height="110" as="geometry" />
        </mxCell>
        <mxCell id="oryLOTmuy3Qz9RxGa48n-16" value="&lt;font style=&quot;font-size: 31px;&quot;&gt;&lt;b&gt;ДИАГРАММА КЛАССОВ&lt;/b&gt;&lt;/font&gt;" style="text;html=1;align=center;verticalAlign=middle;resizable=0;points=[];autosize=1;strokeColor=none;fillColor=none;" vertex="1" parent="1">
          <mxGeometry x="200" y="90" width="380" height="50" as="geometry" />
        </mxCell>
        <mxCell id="oryLOTmuy3Qz9RxGa48n-17" value="" style="endArrow=block;startArrow=block;endFill=1;startFill=1;html=1;rounded=0;exitX=1.013;exitY=0.362;exitDx=0;exitDy=0;exitPerimeter=0;" edge="1" parent="1" source="oryLOTmuy3Qz9RxGa48n-11" target="oryLOTmuy3Qz9RxGa48n-15">
          <mxGeometry width="160" relative="1" as="geometry">
            <mxPoint x="370" y="732" as="sourcePoint" />
            <mxPoint x="530" y="732" as="targetPoint" />
            <Array as="points">
              <mxPoint x="640" y="732" />
            </Array>
          </mxGeometry>
        </mxCell>
        <mxCell id="oryLOTmuy3Qz9RxGa48n-18" value="Приложение" style="shape=umlLifeline;perimeter=lifelinePerimeter;whiteSpace=wrap;html=1;container=1;collapsible=0;recursiveResize=0;outlineConnect=0;rounded=1;shadow=0;comic=0;labelBackgroundColor=none;strokeWidth=1;fontFamily=Verdana;fontSize=12;align=center;" vertex="1" parent="1">
          <mxGeometry x="1170" y="260" width="100" height="525" as="geometry" />
        </mxCell>
        <mxCell id="oryLOTmuy3Qz9RxGa48n-19" value="" style="html=1;points=[];perimeter=orthogonalPerimeter;rounded=0;shadow=0;comic=0;labelBackgroundColor=none;strokeWidth=1;fontFamily=Verdana;fontSize=12;align=center;" vertex="1" parent="oryLOTmuy3Qz9RxGa48n-18">
          <mxGeometry x="45" y="100" width="10" height="430" as="geometry" />
        </mxCell>
        <mxCell id="oryLOTmuy3Qz9RxGa48n-20" value="БД паролей" style="shape=umlLifeline;perimeter=lifelinePerimeter;whiteSpace=wrap;html=1;container=1;collapsible=0;recursiveResize=0;outlineConnect=0;rounded=1;shadow=0;comic=0;labelBackgroundColor=none;strokeWidth=1;fontFamily=Verdana;fontSize=12;align=center;" vertex="1" parent="1">
          <mxGeometry x="1410" y="260" width="110" height="405" as="geometry" />
        </mxCell>
        <mxCell id="oryLOTmuy3Qz9RxGa48n-21" value="" style="html=1;points=[];perimeter=orthogonalPerimeter;rounded=0;shadow=0;comic=0;labelBackgroundColor=none;strokeWidth=1;fontFamily=Verdana;fontSize=12;align=center;" vertex="1" parent="oryLOTmuy3Qz9RxGa48n-20">
          <mxGeometry x="50" y="115" width="10" height="285" as="geometry" />
        </mxCell>
        <mxCell id="oryLOTmuy3Qz9RxGa48n-22" value="Пользователь" style="shape=umlLifeline;perimeter=lifelinePerimeter;whiteSpace=wrap;html=1;container=1;collapsible=0;recursiveResize=0;outlineConnect=0;rounded=1;shadow=0;comic=0;labelBackgroundColor=none;strokeWidth=1;fontFamily=Verdana;fontSize=12;align=center;" vertex="1" parent="1">
          <mxGeometry x="860" y="260" width="100" height="515" as="geometry" />
        </mxCell>
        <mxCell id="oryLOTmuy3Qz9RxGa48n-23" value="" style="html=1;points=[];perimeter=orthogonalPerimeter;rounded=0;shadow=0;comic=0;labelBackgroundColor=none;strokeWidth=1;fontFamily=Verdana;fontSize=12;align=center;" vertex="1" parent="oryLOTmuy3Qz9RxGa48n-22">
          <mxGeometry x="45" y="100" width="10" height="410" as="geometry" />
        </mxCell>
        <mxCell id="oryLOTmuy3Qz9RxGa48n-24" value="Показ главной страницы" style="text;html=1;align=center;verticalAlign=middle;resizable=0;points=[];autosize=1;strokeColor=none;fillColor=none;" vertex="1" parent="1">
          <mxGeometry x="985.6300000000001" y="505" width="160" height="30" as="geometry" />
        </mxCell>
        <mxCell id="oryLOTmuy3Qz9RxGa48n-25" value="" style="endArrow=classic;html=1;rounded=0;" edge="1" parent="1">
          <mxGeometry width="50" height="50" relative="1" as="geometry">
            <mxPoint x="915" y="375" as="sourcePoint" />
            <mxPoint x="1220" y="375" as="targetPoint" />
          </mxGeometry>
        </mxCell>
        <mxCell id="oryLOTmuy3Qz9RxGa48n-26" value="Авторизация" style="edgeLabel;html=1;align=center;verticalAlign=middle;resizable=0;points=[];" vertex="1" connectable="0" parent="oryLOTmuy3Qz9RxGa48n-25">
          <mxGeometry x="-0.1163" relative="1" as="geometry">
            <mxPoint x="1" as="offset" />
          </mxGeometry>
        </mxCell>
        <mxCell id="oryLOTmuy3Qz9RxGa48n-27" value="" style="endArrow=classic;html=1;rounded=0;" edge="1" parent="1" source="oryLOTmuy3Qz9RxGa48n-18" target="oryLOTmuy3Qz9RxGa48n-20">
          <mxGeometry width="50" height="50" relative="1" as="geometry">
            <mxPoint x="1220" y="445" as="sourcePoint" />
            <mxPoint x="1310" y="405" as="targetPoint" />
            <Array as="points">
              <mxPoint x="1340" y="395" />
            </Array>
          </mxGeometry>
        </mxCell>
        <mxCell id="oryLOTmuy3Qz9RxGa48n-28" value="Отправление запроса на проверку" style="edgeLabel;html=1;align=center;verticalAlign=middle;resizable=0;points=[];" vertex="1" connectable="0" parent="oryLOTmuy3Qz9RxGa48n-27">
          <mxGeometry x="0.0276" y="-2" relative="1" as="geometry">
            <mxPoint as="offset" />
          </mxGeometry>
        </mxCell>
        <mxCell id="oryLOTmuy3Qz9RxGa48n-29" value="" style="endArrow=classic;html=1;rounded=0;dashed=1;" edge="1" parent="1" target="oryLOTmuy3Qz9RxGa48n-18">
          <mxGeometry width="50" height="50" relative="1" as="geometry">
            <mxPoint x="1460" y="485.1600000000001" as="sourcePoint" />
            <mxPoint x="1224.87" y="485" as="targetPoint" />
            <Array as="points" />
          </mxGeometry>
        </mxCell>
        <mxCell id="oryLOTmuy3Qz9RxGa48n-30" value="Подтверждение авторизации" style="edgeLabel;html=1;align=center;verticalAlign=middle;resizable=0;points=[];" vertex="1" connectable="0" parent="oryLOTmuy3Qz9RxGa48n-29">
          <mxGeometry x="0.1345" relative="1" as="geometry">
            <mxPoint as="offset" />
          </mxGeometry>
        </mxCell>
        <mxCell id="oryLOTmuy3Qz9RxGa48n-31" value="" style="edgeStyle=none;orthogonalLoop=1;jettySize=auto;html=1;rounded=0;dashed=1;" edge="1" parent="1">
          <mxGeometry width="100" relative="1" as="geometry">
            <mxPoint x="1215.13" y="525" as="sourcePoint" />
            <mxPoint x="904.8800000000002" y="525" as="targetPoint" />
            <Array as="points" />
          </mxGeometry>
        </mxCell>
        <mxCell id="oryLOTmuy3Qz9RxGa48n-32" value="Запрос на показ пароля" style="html=1;verticalAlign=bottom;endArrow=block;labelBackgroundColor=none;fontFamily=Verdana;fontSize=12;edgeStyle=elbowEdgeStyle;elbow=vertical;" edge="1" parent="1">
          <mxGeometry relative="1" as="geometry">
            <mxPoint x="910.5" y="575" as="sourcePoint" />
            <mxPoint x="1215" y="575" as="targetPoint" />
            <Array as="points">
              <mxPoint x="1065.5" y="575" />
            </Array>
          </mxGeometry>
        </mxCell>
        <mxCell id="oryLOTmuy3Qz9RxGa48n-33" value="" style="html=1;verticalAlign=bottom;endArrow=open;dashed=1;endSize=8;curved=0;rounded=0;" edge="1" parent="1">
          <mxGeometry relative="1" as="geometry">
            <mxPoint x="1460" y="649" as="sourcePoint" />
            <mxPoint x="1220.5" y="649" as="targetPoint" />
          </mxGeometry>
        </mxCell>
        <mxCell id="oryLOTmuy3Qz9RxGa48n-34" value="Отправка пароля" style="edgeLabel;html=1;align=center;verticalAlign=middle;resizable=0;points=[];" vertex="1" connectable="0" parent="oryLOTmuy3Qz9RxGa48n-33">
          <mxGeometry x="0.0438" y="1" relative="1" as="geometry">
            <mxPoint as="offset" />
          </mxGeometry>
        </mxCell>
        <mxCell id="oryLOTmuy3Qz9RxGa48n-35" value="Запрос пароля" style="html=1;verticalAlign=bottom;endArrow=block;labelBackgroundColor=none;fontFamily=Verdana;fontSize=12;edgeStyle=elbowEdgeStyle;elbow=vertical;" edge="1" parent="1" source="oryLOTmuy3Qz9RxGa48n-18" target="oryLOTmuy3Qz9RxGa48n-21">
          <mxGeometry relative="1" as="geometry">
            <mxPoint x="1215.5" y="609.3800000000001" as="sourcePoint" />
            <mxPoint x="1520" y="609.3800000000001" as="targetPoint" />
            <Array as="points">
              <mxPoint x="1370.5" y="609.3800000000001" />
            </Array>
          </mxGeometry>
        </mxCell>
        <mxCell id="oryLOTmuy3Qz9RxGa48n-36" value="" style="html=1;verticalAlign=bottom;endArrow=open;dashed=1;endSize=8;curved=0;rounded=0;" edge="1" parent="1">
          <mxGeometry relative="1" as="geometry">
            <mxPoint x="1215.63" y="755" as="sourcePoint" />
            <mxPoint x="915.6300000000001" y="755" as="targetPoint" />
          </mxGeometry>
        </mxCell>
        <mxCell id="oryLOTmuy3Qz9RxGa48n-37" value="Показ пароля" style="edgeLabel;html=1;align=center;verticalAlign=middle;resizable=0;points=[];" vertex="1" connectable="0" parent="oryLOTmuy3Qz9RxGa48n-36">
          <mxGeometry x="-0.0625" relative="1" as="geometry">
            <mxPoint x="1" as="offset" />
          </mxGeometry>
        </mxCell>
        <mxCell id="oryLOTmuy3Qz9RxGa48n-38" value="" style="edgeStyle=none;orthogonalLoop=1;jettySize=auto;html=1;rounded=0;" edge="1" parent="1" source="oryLOTmuy3Qz9RxGa48n-18" target="oryLOTmuy3Qz9RxGa48n-18">
          <mxGeometry width="100" relative="1" as="geometry">
            <mxPoint x="1230" y="675" as="sourcePoint" />
            <mxPoint x="1240" y="735" as="targetPoint" />
            <Array as="points">
              <mxPoint x="1331" y="675" />
              <mxPoint x="1331" y="725" />
            </Array>
          </mxGeometry>
        </mxCell>
        <mxCell id="oryLOTmuy3Qz9RxGa48n-39" value="Расшифровка пароля" style="edgeLabel;html=1;align=center;verticalAlign=middle;resizable=0;points=[];" vertex="1" connectable="0" parent="oryLOTmuy3Qz9RxGa48n-38">
          <mxGeometry x="-0.0227" y="-1" relative="1" as="geometry">
            <mxPoint as="offset" />
          </mxGeometry>
        </mxCell>
        <mxCell id="oryLOTmuy3Qz9RxGa48n-40" value="" style="edgeStyle=none;orthogonalLoop=1;jettySize=auto;html=1;rounded=0;" edge="1" parent="1" source="oryLOTmuy3Qz9RxGa48n-20" target="oryLOTmuy3Qz9RxGa48n-20">
          <mxGeometry width="100" relative="1" as="geometry">
            <mxPoint x="1480" y="415" as="sourcePoint" />
            <mxPoint x="1560" y="465" as="targetPoint" />
            <Array as="points">
              <mxPoint x="1580" y="415" />
              <mxPoint x="1580" y="465" />
            </Array>
          </mxGeometry>
        </mxCell>
        <mxCell id="oryLOTmuy3Qz9RxGa48n-41" value="Проверка пароля/логина" style="edgeLabel;html=1;align=center;verticalAlign=middle;resizable=0;points=[];" vertex="1" connectable="0" parent="oryLOTmuy3Qz9RxGa48n-40">
          <mxGeometry x="-0.0227" y="-1" relative="1" as="geometry">
            <mxPoint as="offset" />
          </mxGeometry>
        </mxCell>
        <mxCell id="oryLOTmuy3Qz9RxGa48n-42" value="&lt;font style=&quot;font-size: 22px;&quot;&gt;&lt;b&gt;ДИАГРАММА ПОСЛЕДОВАТЕЛЬНОСТИ&lt;/b&gt;&lt;/font&gt;" style="text;html=1;strokeColor=none;fillColor=none;align=center;verticalAlign=middle;whiteSpace=wrap;rounded=0;" vertex="1" parent="1">
          <mxGeometry x="900" y="80" width="640" height="160" as="geometry" />
        </mxCell>
        <mxCell id="oryLOTmuy3Qz9RxGa48n-43" value="" style="ellipse;html=1;shape=startState;fillColor=#000000;strokeColor=#ff0000;" vertex="1" parent="1">
          <mxGeometry x="1765" y="200" width="30" height="30" as="geometry" />
        </mxCell>
        <mxCell id="oryLOTmuy3Qz9RxGa48n-44" value="" style="edgeStyle=orthogonalEdgeStyle;html=1;verticalAlign=bottom;endArrow=open;endSize=8;strokeColor=#ff0000;rounded=0;entryX=0.5;entryY=0;entryDx=0;entryDy=0;" edge="1" parent="1" source="oryLOTmuy3Qz9RxGa48n-43" target="oryLOTmuy3Qz9RxGa48n-49">
          <mxGeometry relative="1" as="geometry">
            <mxPoint x="1780" y="290" as="targetPoint" />
          </mxGeometry>
        </mxCell>
        <mxCell id="oryLOTmuy3Qz9RxGa48n-45" style="edgeStyle=orthogonalEdgeStyle;rounded=0;orthogonalLoop=1;jettySize=auto;html=1;entryX=0.5;entryY=0;entryDx=0;entryDy=0;" edge="1" parent="1" source="oryLOTmuy3Qz9RxGa48n-49" target="oryLOTmuy3Qz9RxGa48n-54">
          <mxGeometry relative="1" as="geometry" />
        </mxCell>
        <mxCell id="oryLOTmuy3Qz9RxGa48n-46" value="Регистрация" style="edgeLabel;html=1;align=center;verticalAlign=middle;resizable=0;points=[];" vertex="1" connectable="0" parent="oryLOTmuy3Qz9RxGa48n-45">
          <mxGeometry x="0.2279" y="-3" relative="1" as="geometry">
            <mxPoint as="offset" />
          </mxGeometry>
        </mxCell>
        <mxCell id="oryLOTmuy3Qz9RxGa48n-47" style="edgeStyle=orthogonalEdgeStyle;rounded=0;orthogonalLoop=1;jettySize=auto;html=1;entryX=0;entryY=0.5;entryDx=0;entryDy=0;" edge="1" parent="1" source="oryLOTmuy3Qz9RxGa48n-49" target="oryLOTmuy3Qz9RxGa48n-78">
          <mxGeometry relative="1" as="geometry" />
        </mxCell>
        <mxCell id="oryLOTmuy3Qz9RxGa48n-48" value="Не регистрируется" style="edgeLabel;html=1;align=center;verticalAlign=middle;resizable=0;points=[];" vertex="1" connectable="0" parent="oryLOTmuy3Qz9RxGa48n-47">
          <mxGeometry x="-0.1574" y="-4" relative="1" as="geometry">
            <mxPoint as="offset" />
          </mxGeometry>
        </mxCell>
        <mxCell id="oryLOTmuy3Qz9RxGa48n-49" value="Незарегистрирован" style="rounded=1;whiteSpace=wrap;html=1;" vertex="1" parent="1">
          <mxGeometry x="1720" y="320" width="120" height="60" as="geometry" />
        </mxCell>
        <mxCell id="oryLOTmuy3Qz9RxGa48n-50" style="edgeStyle=orthogonalEdgeStyle;rounded=0;orthogonalLoop=1;jettySize=auto;html=1;entryX=0;entryY=0.5;entryDx=0;entryDy=0;" edge="1" parent="1" source="oryLOTmuy3Qz9RxGa48n-54" target="oryLOTmuy3Qz9RxGa48n-59">
          <mxGeometry relative="1" as="geometry" />
        </mxCell>
        <mxCell id="oryLOTmuy3Qz9RxGa48n-51" value="Вход в систему" style="edgeLabel;html=1;align=center;verticalAlign=middle;resizable=0;points=[];" vertex="1" connectable="0" parent="oryLOTmuy3Qz9RxGa48n-50">
          <mxGeometry x="-0.2464" y="-2" relative="1" as="geometry">
            <mxPoint as="offset" />
          </mxGeometry>
        </mxCell>
        <mxCell id="oryLOTmuy3Qz9RxGa48n-52" style="edgeStyle=orthogonalEdgeStyle;rounded=0;orthogonalLoop=1;jettySize=auto;html=1;entryX=0.5;entryY=1;entryDx=0;entryDy=0;" edge="1" parent="1" source="oryLOTmuy3Qz9RxGa48n-54" target="oryLOTmuy3Qz9RxGa48n-78">
          <mxGeometry relative="1" as="geometry">
            <Array as="points">
              <mxPoint x="1995" y="530" />
              <mxPoint x="1995" y="240" />
            </Array>
          </mxGeometry>
        </mxCell>
        <mxCell id="oryLOTmuy3Qz9RxGa48n-53" value="Выход из системы" style="edgeLabel;html=1;align=center;verticalAlign=middle;resizable=0;points=[];" vertex="1" connectable="0" parent="oryLOTmuy3Qz9RxGa48n-52">
          <mxGeometry x="0.613" y="2" relative="1" as="geometry">
            <mxPoint as="offset" />
          </mxGeometry>
        </mxCell>
        <mxCell id="oryLOTmuy3Qz9RxGa48n-54" value="Зарегистрирован" style="rounded=1;whiteSpace=wrap;html=1;" vertex="1" parent="1">
          <mxGeometry x="1725" y="500" width="120" height="60" as="geometry" />
        </mxCell>
        <mxCell id="oryLOTmuy3Qz9RxGa48n-55" style="edgeStyle=orthogonalEdgeStyle;rounded=0;orthogonalLoop=1;jettySize=auto;html=1;entryX=0;entryY=0.5;entryDx=0;entryDy=0;exitX=0.5;exitY=0;exitDx=0;exitDy=0;" edge="1" parent="1" source="oryLOTmuy3Qz9RxGa48n-59" target="oryLOTmuy3Qz9RxGa48n-64">
          <mxGeometry relative="1" as="geometry" />
        </mxCell>
        <mxCell id="oryLOTmuy3Qz9RxGa48n-56" value="Кнопка Новая запись нажата" style="edgeLabel;html=1;align=center;verticalAlign=middle;resizable=0;points=[];" vertex="1" connectable="0" parent="oryLOTmuy3Qz9RxGa48n-55">
          <mxGeometry x="-0.1126" y="1" relative="1" as="geometry">
            <mxPoint as="offset" />
          </mxGeometry>
        </mxCell>
        <mxCell id="oryLOTmuy3Qz9RxGa48n-57" style="edgeStyle=orthogonalEdgeStyle;rounded=0;orthogonalLoop=1;jettySize=auto;html=1;" edge="1" parent="1" source="oryLOTmuy3Qz9RxGa48n-59" target="oryLOTmuy3Qz9RxGa48n-72">
          <mxGeometry relative="1" as="geometry" />
        </mxCell>
        <mxCell id="oryLOTmuy3Qz9RxGa48n-58" value="Кнопка Просмотр записей нажата" style="edgeLabel;html=1;align=center;verticalAlign=middle;resizable=0;points=[];" vertex="1" connectable="0" parent="oryLOTmuy3Qz9RxGa48n-57">
          <mxGeometry x="-0.0688" y="-2" relative="1" as="geometry">
            <mxPoint x="27" y="-34" as="offset" />
          </mxGeometry>
        </mxCell>
        <mxCell id="oryLOTmuy3Qz9RxGa48n-59" value="Аутентифицирован" style="rounded=1;whiteSpace=wrap;html=1;" vertex="1" parent="1">
          <mxGeometry x="1825" y="730" width="120" height="60" as="geometry" />
        </mxCell>
        <mxCell id="oryLOTmuy3Qz9RxGa48n-60" style="edgeStyle=orthogonalEdgeStyle;rounded=0;orthogonalLoop=1;jettySize=auto;html=1;" edge="1" parent="1" source="oryLOTmuy3Qz9RxGa48n-64" target="oryLOTmuy3Qz9RxGa48n-72">
          <mxGeometry relative="1" as="geometry" />
        </mxCell>
        <mxCell id="oryLOTmuy3Qz9RxGa48n-61" value="Кнопка Отмена" style="edgeLabel;html=1;align=center;verticalAlign=middle;resizable=0;points=[];" vertex="1" connectable="0" parent="oryLOTmuy3Qz9RxGa48n-60">
          <mxGeometry x="-0.5223" y="-1" relative="1" as="geometry">
            <mxPoint as="offset" />
          </mxGeometry>
        </mxCell>
        <mxCell id="oryLOTmuy3Qz9RxGa48n-62" style="edgeStyle=orthogonalEdgeStyle;rounded=0;orthogonalLoop=1;jettySize=auto;html=1;entryX=0.5;entryY=1;entryDx=0;entryDy=0;" edge="1" parent="1" source="oryLOTmuy3Qz9RxGa48n-64" target="oryLOTmuy3Qz9RxGa48n-65">
          <mxGeometry relative="1" as="geometry" />
        </mxCell>
        <mxCell id="oryLOTmuy3Qz9RxGa48n-63" value="Кнопка Создать" style="edgeLabel;html=1;align=center;verticalAlign=middle;resizable=0;points=[];" vertex="1" connectable="0" parent="oryLOTmuy3Qz9RxGa48n-62">
          <mxGeometry x="0.4506" relative="1" as="geometry">
            <mxPoint as="offset" />
          </mxGeometry>
        </mxCell>
        <mxCell id="oryLOTmuy3Qz9RxGa48n-64" value="Создание записи&amp;nbsp;" style="rounded=1;whiteSpace=wrap;html=1;" vertex="1" parent="1">
          <mxGeometry x="1980" y="550" width="120" height="60" as="geometry" />
        </mxCell>
        <mxCell id="oryLOTmuy3Qz9RxGa48n-65" value="Ввод информации" style="rounded=1;whiteSpace=wrap;html=1;" vertex="1" parent="1">
          <mxGeometry x="2075" y="440" width="120" height="60" as="geometry" />
        </mxCell>
        <mxCell id="oryLOTmuy3Qz9RxGa48n-66" style="edgeStyle=orthogonalEdgeStyle;rounded=0;orthogonalLoop=1;jettySize=auto;html=1;exitX=0.25;exitY=1;exitDx=0;exitDy=0;entryX=0.75;entryY=0;entryDx=0;entryDy=0;" edge="1" parent="1" source="oryLOTmuy3Qz9RxGa48n-72" target="oryLOTmuy3Qz9RxGa48n-77">
          <mxGeometry relative="1" as="geometry" />
        </mxCell>
        <mxCell id="oryLOTmuy3Qz9RxGa48n-67" value="Кнопка Редактировать" style="edgeLabel;html=1;align=center;verticalAlign=middle;resizable=0;points=[];" vertex="1" connectable="0" parent="oryLOTmuy3Qz9RxGa48n-66">
          <mxGeometry x="0.1762" y="2" relative="1" as="geometry">
            <mxPoint x="26" as="offset" />
          </mxGeometry>
        </mxCell>
        <mxCell id="oryLOTmuy3Qz9RxGa48n-68" style="edgeStyle=orthogonalEdgeStyle;rounded=0;orthogonalLoop=1;jettySize=auto;html=1;exitX=0.75;exitY=0;exitDx=0;exitDy=0;entryX=1;entryY=0.75;entryDx=0;entryDy=0;" edge="1" parent="1" source="oryLOTmuy3Qz9RxGa48n-72" target="oryLOTmuy3Qz9RxGa48n-64">
          <mxGeometry relative="1" as="geometry" />
        </mxCell>
        <mxCell id="oryLOTmuy3Qz9RxGa48n-69" value="Кнопка Создание записи" style="edgeLabel;html=1;align=center;verticalAlign=middle;resizable=0;points=[];" vertex="1" connectable="0" parent="oryLOTmuy3Qz9RxGa48n-68">
          <mxGeometry x="-0.0648" y="4" relative="1" as="geometry">
            <mxPoint as="offset" />
          </mxGeometry>
        </mxCell>
        <mxCell id="oryLOTmuy3Qz9RxGa48n-70" style="edgeStyle=orthogonalEdgeStyle;rounded=0;orthogonalLoop=1;jettySize=auto;html=1;entryX=1;entryY=0.5;entryDx=0;entryDy=0;exitX=1;exitY=0.5;exitDx=0;exitDy=0;" edge="1" parent="1" source="oryLOTmuy3Qz9RxGa48n-72" target="oryLOTmuy3Qz9RxGa48n-78">
          <mxGeometry relative="1" as="geometry" />
        </mxCell>
        <mxCell id="oryLOTmuy3Qz9RxGa48n-71" value="Кнопка Выход" style="edgeLabel;html=1;align=center;verticalAlign=middle;resizable=0;points=[];" vertex="1" connectable="0" parent="oryLOTmuy3Qz9RxGa48n-70">
          <mxGeometry x="0.1255" y="1" relative="1" as="geometry">
            <mxPoint as="offset" />
          </mxGeometry>
        </mxCell>
        <mxCell id="oryLOTmuy3Qz9RxGa48n-72" value="Просмотр записей" style="rounded=1;whiteSpace=wrap;html=1;" vertex="1" parent="1">
          <mxGeometry x="2085" y="770" width="120" height="60" as="geometry" />
        </mxCell>
        <mxCell id="oryLOTmuy3Qz9RxGa48n-73" style="edgeStyle=orthogonalEdgeStyle;rounded=0;orthogonalLoop=1;jettySize=auto;html=1;entryX=0.5;entryY=1;entryDx=0;entryDy=0;" edge="1" parent="1" source="oryLOTmuy3Qz9RxGa48n-77" target="oryLOTmuy3Qz9RxGa48n-72">
          <mxGeometry relative="1" as="geometry" />
        </mxCell>
        <mxCell id="oryLOTmuy3Qz9RxGa48n-74" value="Кнопка отмена" style="edgeLabel;html=1;align=center;verticalAlign=middle;resizable=0;points=[];" vertex="1" connectable="0" parent="oryLOTmuy3Qz9RxGa48n-73">
          <mxGeometry x="0.1062" y="1" relative="1" as="geometry">
            <mxPoint as="offset" />
          </mxGeometry>
        </mxCell>
        <mxCell id="oryLOTmuy3Qz9RxGa48n-75" style="edgeStyle=orthogonalEdgeStyle;rounded=0;orthogonalLoop=1;jettySize=auto;html=1;entryX=0;entryY=0.75;entryDx=0;entryDy=0;exitX=0.5;exitY=0;exitDx=0;exitDy=0;" edge="1" parent="1" source="oryLOTmuy3Qz9RxGa48n-77" target="oryLOTmuy3Qz9RxGa48n-72">
          <mxGeometry relative="1" as="geometry" />
        </mxCell>
        <mxCell id="oryLOTmuy3Qz9RxGa48n-76" value="Кнопка Сохранение изменений" style="edgeLabel;html=1;align=center;verticalAlign=middle;resizable=0;points=[];" vertex="1" connectable="0" parent="oryLOTmuy3Qz9RxGa48n-75">
          <mxGeometry x="0.2338" y="1" relative="1" as="geometry">
            <mxPoint x="1" y="64" as="offset" />
          </mxGeometry>
        </mxCell>
        <mxCell id="oryLOTmuy3Qz9RxGa48n-77" value="Редактирование записи" style="rounded=1;whiteSpace=wrap;html=1;" vertex="1" parent="1">
          <mxGeometry x="1905" y="1010" width="120" height="60" as="geometry" />
        </mxCell>
        <mxCell id="oryLOTmuy3Qz9RxGa48n-78" value="" style="ellipse;html=1;shape=endState;fillColor=#000000;strokeColor=#ff0000;" vertex="1" parent="1">
          <mxGeometry x="2025" y="210" width="30" height="30" as="geometry" />
        </mxCell>
        <mxCell id="oryLOTmuy3Qz9RxGa48n-79" value="&lt;font size=&quot;1&quot; style=&quot;&quot;&gt;&lt;b style=&quot;font-size: 27px;&quot;&gt;ДИАГРАММА СОСТОЯНИЙ&lt;/b&gt;&lt;/font&gt;" style="text;html=1;align=center;verticalAlign=middle;resizable=0;points=[];autosize=1;strokeColor=none;fillColor=none;" vertex="1" parent="1">
          <mxGeometry x="1790" y="110" width="380" height="50" as="geometry" />
        </mxCell>
      </root>
    </mxGraphModel>
  </diagram>
</mxfile>
